<svg width="0" height="0" class="hidden">
  <symbol id="close" viewBox="0 0 30 30" fill="none" xmlns="http://www.w3.org/2000/svg" >
    <path d="M8.22285 6.46973C7.73847 5.98535 6.95314 5.98535 6.46875 6.46973C5.98437 6.95411 5.98437 7.73945 6.46875 8.22383L13.2452 15.0003L6.46875 21.7767C5.98437 22.2611 5.98437 23.0464 6.46875 23.5308C6.95314 24.0152 7.73847 24.0152 8.22285 23.5308L14.9993 16.7544L21.7757 23.5308C22.2601 24.0152 23.0454 24.0152 23.5298 23.5308C24.0142 23.0464 24.0142 22.2611 23.5298 21.7767L16.7534 15.0003L23.5298 8.22383C24.0142 7.73945 24.0142 6.95411 23.5298 6.46973C23.0454 5.98535 22.2601 5.98535 21.7757 6.46973L14.9993 13.2462L8.22285 6.46973Z" fill="black"></path>
  </symbol>

    <symbol id="logo" viewBox="0 0 177 54" fill="none" xmlns="http://www.w3.org/2000/svg" >
        <path d="M158.892 20.1831C148.894 20.1831 140.783 27.5679 140.783 36.6693C140.783 45.7706 148.894 53.1554 158.892 53.1554C168.889 53.1554 177 45.7706 177 36.6693C177 27.5679 168.889 20.1831 158.892 20.1831ZM158.901 48.5529C151.158 48.5529 145.829 43.7806 145.829 36.7353C145.829 29.69 151.158 24.9177 158.901 24.9177C166.644 24.9177 171.973 29.69 171.973 36.7353C171.973 43.7806 166.644 48.5529 158.901 48.5529Z" fill="#FBF6EF"/>
        <path d="M34.4059 20.1833C34.3965 20.4002 34.3682 20.6171 34.3682 20.834C34.3682 31.3784 34.3682 41.9322 34.3682 52.4765C34.3682 53.1462 34.3682 53.1462 33.6986 53.1462C32.2838 53.1462 30.8691 53.1273 29.4544 53.1556C28.9923 53.165 28.8791 53.0141 28.8791 52.5614C28.8885 45.2049 28.8885 37.8484 28.8885 30.4918C28.8885 30.2938 28.8885 30.0957 28.8885 29.8977C28.8508 29.8882 28.8131 29.8694 28.7753 29.8599C28.6716 30.0203 28.549 30.1712 28.4547 30.3315C25.3046 35.566 22.1545 40.8004 19.0138 46.0443C18.7969 46.4121 18.5517 46.5725 18.1178 46.5536C17.3633 46.5159 16.6088 46.5253 15.8543 46.5536C15.5242 46.563 15.345 46.4404 15.1846 46.1575C12.1005 40.8287 9.00703 35.4999 5.91352 30.1806C5.79091 29.9637 5.64001 29.7656 5.49853 29.5487C5.45138 29.5676 5.40422 29.577 5.35706 29.5958C5.34763 29.7845 5.32877 29.9825 5.32877 30.1712C5.32877 37.622 5.32877 45.0729 5.32877 52.5237C5.32877 53.1367 5.32877 53.1462 4.70629 53.1462C3.31044 53.1462 1.90515 53.1462 0.509298 53.1462C0.339532 53.1462 0.169766 53.1745 0 53.1839C0 42.1774 0 31.1803 0 20.1738C1.54676 20.1738 3.08408 20.1738 4.62141 20.1738C4.71572 20.353 4.80061 20.5417 4.90435 20.7114C8.82784 26.9173 12.7513 33.1326 16.6748 39.3385C16.7785 39.4989 16.8823 39.6403 17.0521 39.8761C17.2407 39.6498 17.4199 39.48 17.5425 39.2819C20.5228 34.6134 23.5126 29.9448 26.4835 25.2762C27.5587 23.5786 28.6244 21.8809 29.6996 20.1833C31.2653 20.1833 32.8309 20.1833 34.4059 20.1833Z" fill="#FBF6EF"/>
        <path d="M93.7297 20.1831C93.8145 20.2397 93.8994 20.334 93.9937 20.334C95.6254 20.3434 97.2193 20.5792 98.7189 21.2394C102.718 22.9937 105.161 26.0117 105.859 30.3313C106.868 36.6221 102.539 42.5073 96.295 43.6014C95.2859 43.7806 94.239 43.7994 93.2015 43.8089C90.5324 43.8372 87.8539 43.8183 85.1848 43.8183C84.9961 43.8183 84.8075 43.8183 84.534 43.8183C84.534 44.0258 84.534 44.205 84.534 44.3842C84.534 47.1193 84.5246 49.8544 84.5434 52.5896C84.5434 53.0517 84.402 53.1743 83.9587 53.1649C82.5251 53.1366 81.101 53.1554 79.6674 53.1554C79.0543 53.1554 79.0543 53.1554 79.0543 52.5235C79.0543 41.9603 79.0543 31.4065 79.0543 20.8433C79.0543 20.6264 79.026 20.4095 79.0166 20.1925C83.921 20.1831 88.8253 20.1831 93.7297 20.1831ZM84.3737 38.7725C84.5529 38.7819 84.6943 38.8008 84.8264 38.8008C88.0991 38.8008 91.3624 38.8008 94.6351 38.8008C94.7954 38.8008 94.9463 38.8008 95.1067 38.7819C98.983 38.2066 101.539 34.5472 100.737 30.718C100.002 27.2284 96.9081 25.361 94.2295 25.4081C91.136 25.4553 88.0331 25.4176 84.9396 25.4176C84.7604 25.4176 84.5717 25.4176 84.3737 25.4176C84.3737 29.8975 84.3737 34.3114 84.3737 38.7725Z" fill="#FBF6EF"/>
        <path d="M59.5874 20.1831C59.7006 20.4849 59.7949 20.8056 59.9364 21.098C63.4449 28.8317 66.9628 36.5655 70.4713 44.2993C71.7257 47.0533 72.98 49.8167 74.225 52.5801C74.291 52.731 74.357 52.8914 74.4419 53.1083C67.1137 53.1083 59.842 53.1083 52.4949 53.1083C52.7024 52.7027 52.9005 52.3255 53.0891 51.9577C53.6267 50.9296 54.1549 49.8922 54.7208 48.8736C54.7962 48.7321 55.0509 48.6284 55.2301 48.6284C58.4179 48.6189 61.6151 48.6189 64.803 48.6189C65.3972 48.6189 65.9913 48.6189 66.7081 48.6189C63.4071 41.1586 60.1438 33.7927 56.8334 26.3041C56.6919 26.5493 56.5976 26.6719 56.541 26.8228C52.9476 35.1037 49.3731 43.3939 45.7703 51.6653C45.0064 53.429 45.4308 53.1272 43.5445 53.146C42.2712 53.1554 40.998 53.146 39.7248 53.146C39.5739 53.146 39.423 53.146 39.1777 53.146C39.5361 52.3538 39.8474 51.637 40.168 50.9296C44.6668 40.8851 49.1656 30.8406 53.655 20.7961C53.7399 20.5981 53.7776 20.3906 53.8436 20.1831C55.7488 20.1831 57.6728 20.1831 59.5874 20.1831Z" fill="#FBF6EF"/>
        <path d="M140.227 20.1831C139.057 21.9751 137.888 23.7576 136.718 25.5402C134.294 29.209 131.87 32.8873 129.437 36.5467C129.211 36.8862 129.211 37.122 129.456 37.4521C133.106 42.4885 136.737 47.5437 140.378 52.5896C140.472 52.731 140.566 52.8725 140.708 53.0894C140.5 53.1177 140.368 53.146 140.246 53.146C138.567 53.146 136.879 53.1649 135.2 53.1366C134.983 53.1366 134.681 52.9763 134.549 52.7971C131.474 48.5812 128.409 44.3653 125.382 40.1212C124.985 39.5742 124.608 39.3478 123.929 39.3667C122.203 39.4138 120.468 39.3855 118.742 39.3855C118.553 39.3855 118.374 39.3855 118.119 39.3855C118.119 39.6308 118.119 39.8382 118.119 40.0363C118.119 44.2144 118.11 48.402 118.129 52.5801C118.129 53.0234 118.016 53.1743 117.553 53.1649C116.139 53.1366 114.724 53.1366 113.309 53.1649C112.847 53.1743 112.725 53.0328 112.725 52.5801C112.734 41.998 112.734 31.4254 112.734 20.8433C112.734 20.6264 112.706 20.4095 112.696 20.1925C114.517 20.1925 116.346 20.1925 118.167 20.1925C118.148 20.3151 118.129 20.4378 118.129 20.5604C118.129 25.0875 118.129 29.6146 118.129 34.1416C118.129 34.2737 118.157 34.4057 118.167 34.5661C118.402 34.5661 118.591 34.5661 118.77 34.5661C120.722 34.5661 122.665 34.5472 124.618 34.5755C125.051 34.5849 125.297 34.4246 125.523 34.0756C128.466 29.5768 131.418 25.0875 134.37 20.5981C134.455 20.466 134.511 20.3246 134.577 20.1831C136.454 20.1831 138.34 20.1831 140.227 20.1831Z" fill="#FBF6EF"/>
        <path d="M10.5636 12.723C9.894 13.0437 9.24323 13.27 8.61133 13.4115C7.97942 13.553 7.29092 13.619 6.55527 13.619C4.53694 13.619 2.95246 13.0343 1.80182 11.8553C0.660613 10.6858 0.0947266 9.07305 0.0947266 7.017C0.0947266 4.94208 0.726633 3.25385 1.99045 1.95231C3.25426 0.65077 4.9142 0 6.95139 0C7.62102 0 8.23407 0.0565887 8.79052 0.169766C9.34698 0.282943 9.91286 0.462141 10.4882 0.707359L9.75253 2.53706C9.29039 2.339 8.84711 2.19753 8.40383 2.11264C7.96999 2.02776 7.48898 1.9806 6.97968 1.9806C5.65928 1.9806 4.57466 2.42388 3.72583 3.30101C2.877 4.17813 2.44316 5.37593 2.44316 6.88496C2.44316 8.36569 2.82985 9.53519 3.61266 10.3935C4.39547 11.2517 5.45179 11.6761 6.78162 11.6761C7.2249 11.6761 7.68704 11.6195 8.17748 11.4969C8.66791 11.3838 9.16778 11.1951 9.68651 10.931L10.5636 12.723Z" fill="white"/>
        <path d="M24.6925 2.11285H20.9011V13.4023H18.6658V2.11285H14.8838V0.226562H24.6925V2.11285Z" fill="white"/>
        <path d="M31.303 0.226228L34.255 6.31894C34.3399 6.48871 34.4154 6.64904 34.472 6.79995C34.5285 6.95085 34.5851 7.12062 34.6229 7.29981H34.6417C34.6889 7.13005 34.736 6.97915 34.7832 6.81881C34.8304 6.66791 34.8869 6.49814 34.953 6.31894L37.2165 0.216797H39.5838L35.7452 9.68597C35.1605 11.1384 34.5568 12.157 33.9249 12.7512C33.293 13.3359 32.5196 13.6377 31.5859 13.6377C31.1992 13.6377 30.8503 13.6 30.5485 13.534C30.2467 13.468 29.9354 13.3548 29.6242 13.185L30.1241 11.4025C30.3504 11.5062 30.5673 11.5817 30.7748 11.6288C30.9823 11.676 31.2087 11.6949 31.4633 11.6949C31.9066 11.6949 32.2839 11.5251 32.614 11.1856C32.9346 10.846 33.2647 10.2802 33.576 9.47848L28.7471 0.226228H31.303Z" fill="white"/>
        <path d="M43.3379 16.1751V11.45H44.498C45.0356 10.422 45.4222 9.25246 45.6675 7.94149C45.9127 6.63052 46.0447 5.16864 46.0447 3.54643V0.226562H54.4387V11.45H56.2684V16.1751H54.2218V13.4117H45.3657V16.1751H43.3379ZM46.7898 11.45H52.2223V2.14115H48.1196V3.75392C48.1196 5.395 48.0159 6.84744 47.799 8.12069C47.5915 9.39393 47.2519 10.5068 46.7898 11.45Z" fill="white"/>
        <path d="M61.9844 13.4117V0.226562H64.1913V8.35647C64.1913 8.77145 64.1913 9.09212 64.1819 9.33734C64.1725 9.58256 64.1536 9.87493 64.1253 10.2333H64.163C64.2479 10.073 64.3328 9.93152 64.4083 9.80891C64.4837 9.6863 64.6063 9.50711 64.7667 9.28075L71.0291 0.226562H73.2455V13.4117H71.0386V5.27239C71.0386 4.86683 71.0386 4.54617 71.048 4.30095C71.0574 4.05573 71.0763 3.75392 71.1046 3.39553H71.0669C70.982 3.55586 70.8971 3.69734 70.8216 3.81994C70.7462 3.94255 70.6236 4.12175 70.4727 4.34811L64.2102 13.4023H61.9844V13.4117Z" fill="white"/>
        <path d="M88.288 13.4114H86.0339V8.23353H84.7041C84.2891 8.23353 83.9307 8.375 83.61 8.66738C83.2894 8.95975 83.0159 9.37473 82.7895 9.90289L81.2805 13.4114H78.668L80.5448 9.44075C80.7618 8.97861 81.0258 8.59192 81.3371 8.27125C81.6389 7.95058 81.9784 7.73366 82.3274 7.61105V7.57333C81.3842 7.36583 80.658 6.96028 80.1487 6.34724C79.6394 5.73419 79.3942 4.97968 79.3942 4.06483C79.3942 2.89533 79.7997 1.96161 80.6203 1.26369C81.4408 0.56576 82.5915 0.216797 84.0911 0.216797H88.288V13.4114ZM86.0339 6.46042V2.0465H84.3268C83.5157 2.0465 82.8838 2.23513 82.4405 2.60295C81.9973 2.97078 81.7709 3.50837 81.7709 4.19687C81.7709 4.92309 81.9973 5.47955 82.45 5.86623C82.9027 6.26236 83.544 6.45098 84.3646 6.45098H86.0339V6.46042Z" fill="white"/>
        <path d="M113.508 13.4117H110.603L106.114 7.58309C106.038 7.48878 105.972 7.39446 105.916 7.30015C105.859 7.20583 105.802 7.10209 105.765 6.98891H105.718V13.4117H103.482V0.226562H105.718V6.37587H105.765C105.802 6.30041 105.85 6.21553 105.916 6.12122C105.972 6.0269 106.048 5.91373 106.123 5.79112L110.424 0.226562H113.084L107.972 6.48904L113.508 13.4117Z" fill="white"/>
        <path d="M119.695 0.226228L122.647 6.31894C122.732 6.48871 122.807 6.64904 122.864 6.79995C122.92 6.95085 122.977 7.12062 123.014 7.29981H123.033C123.08 7.13005 123.128 6.97915 123.175 6.81881C123.222 6.66791 123.279 6.49814 123.345 6.31894L125.608 0.216797H127.975L124.137 9.68597C123.552 11.1384 122.948 12.157 122.317 12.7512C121.685 13.3359 120.911 13.6377 119.978 13.6377C119.591 13.6377 119.242 13.6 118.94 13.534C118.638 13.468 118.327 13.3548 118.016 13.185L118.516 11.4025C118.742 11.5062 118.959 11.5817 119.166 11.6288C119.374 11.676 119.6 11.6949 119.855 11.6949C120.298 11.6949 120.675 11.5251 121.006 11.1856C121.326 10.846 121.656 10.2802 121.968 9.47848L117.139 0.216797H119.695V0.226228Z" fill="white"/>
        <path d="M143.029 13.4114H140.35L137.681 8.72396C137.634 8.64851 137.587 8.54477 137.539 8.41273C137.492 8.28069 137.445 8.12978 137.398 7.95058H137.36C137.323 8.0449 137.285 8.14864 137.228 8.28069C137.181 8.41273 137.115 8.56363 137.04 8.74283L134.333 13.402H131.626L135.946 6.79052L131.984 0.216797H134.729L137.021 4.51754C137.096 4.66844 137.181 4.82877 137.247 5.00797C137.323 5.17774 137.389 5.35694 137.455 5.53613H137.492C137.558 5.36637 137.634 5.1966 137.709 5.0174C137.785 4.84764 137.87 4.66844 137.954 4.47981L140.416 0.216797H142.934L138.888 6.75279L143.029 13.4114Z" fill="white"/>
        <path d="M158.92 13.4117H156.675V7.7057H150.516V13.4023H148.281V0.226562H150.516V5.76282H156.675V0.226562H158.92V13.4117Z" fill="white"/>
        <path d="M165.645 13.4117V0.226562H167.851V8.35647C167.851 8.77145 167.851 9.09212 167.842 9.33734C167.833 9.58256 167.814 9.87493 167.785 10.2333H167.823C167.908 10.073 167.993 9.93152 168.068 9.80891C168.144 9.6863 168.266 9.50711 168.427 9.28075L174.689 0.226562H176.906V13.4117H174.699V5.27239C174.699 4.86683 174.699 4.54617 174.708 4.30095C174.718 4.05573 174.736 3.75392 174.765 3.39553H174.727C174.642 3.55586 174.557 3.69734 174.482 3.81994C174.406 3.94255 174.284 4.12175 174.133 4.34811L167.87 13.4023H165.645V13.4117Z" fill="white"/>
    </symbol>

    <symbol id="ya-link" viewBox="0 0 120 59" fill="none" xmlns="http://www.w3.org/2000/svg">
        <path d="M9.44058 25.7103C9.58514 25.2654 10.2145 25.2654 10.3591 25.7103L11.9056 30.4698C11.9702 30.6688 12.1556 30.8035 12.3648 30.8035H17.3692C17.837 30.8035 18.0315 31.4021 17.6531 31.677L13.6044 34.6186C13.4352 34.7415 13.3643 34.9595 13.429 35.1585L14.9754 39.9179C15.12 40.3628 14.6108 40.7328 14.2323 40.4578L10.1837 37.5163C10.0144 37.3933 9.78525 37.3933 9.61601 37.5163L5.56735 40.4578C5.1889 40.7328 4.6797 40.3628 4.82426 39.9179L6.3707 35.1585C6.43535 34.9595 6.36453 34.7415 6.19528 34.6186L2.14663 31.677C1.76818 31.4021 1.96268 30.8035 2.43047 30.8035H7.43488C7.64408 30.8035 7.82949 30.6688 7.89414 30.4698L9.44058 25.7103Z" fill="#C1AE05"/>
        <path d="M26.3418 25.7103C26.4864 25.2654 27.1158 25.2654 27.2603 25.7103L28.8068 30.4698C28.8714 30.6688 29.0569 30.8035 29.2661 30.8035H34.2705C34.7383 30.8035 34.9328 31.4021 34.5543 31.677L30.5057 34.6186C30.3364 34.7415 30.2656 34.9595 30.3302 35.1585L31.8767 39.9179C32.0212 40.3628 31.512 40.7328 31.1336 40.4578L27.0849 37.5163C26.9157 37.3933 26.6865 37.3933 26.5173 37.5163L22.4686 40.4578C22.0901 40.7328 21.5809 40.3628 21.7255 39.9179L23.2719 35.1585C23.3366 34.9595 23.2658 34.7415 23.0965 34.6186L19.0479 31.677C18.6694 31.4021 18.8639 30.8035 19.3317 30.8035H24.3361C24.5453 30.8035 24.7307 30.6688 24.7954 30.4698L26.3418 25.7103Z" fill="#C1AE05"/>
        <path d="M43.2433 25.7103C43.3879 25.2654 44.0173 25.2654 44.1618 25.7103L45.7083 30.4698C45.7729 30.6688 45.9583 30.8035 46.1675 30.8035H51.172C51.6397 30.8035 51.8342 31.4021 51.4558 31.677L47.4071 34.6186C47.2379 34.7415 47.1671 34.9595 47.2317 35.1585L48.7782 39.9179C48.9227 40.3628 48.4135 40.7328 48.0351 40.4578L43.9864 37.5163C43.8172 37.3933 43.588 37.3933 43.4187 37.5163L39.3701 40.4578C38.9916 40.7328 38.4824 40.3628 38.627 39.9179L40.1734 35.1585C40.2381 34.9595 40.1673 34.7415 39.998 34.6186L35.9494 31.677C35.5709 31.4021 35.7654 30.8035 36.2332 30.8035H41.2376C41.4468 30.8035 41.6322 30.6688 41.6969 30.4698L43.2433 25.7103Z" fill="#C1AE05"/>
        <path d="M60.1444 25.7103C60.289 25.2654 60.9184 25.2654 61.063 25.7103L62.6094 30.4698C62.6741 30.6688 62.8595 30.8035 63.0687 30.8035H68.0731C68.5409 30.8035 68.7354 31.4021 68.3569 31.677L64.3083 34.6186C64.139 34.7415 64.0682 34.9595 64.1328 35.1585L65.6793 39.9179C65.8238 40.3628 65.3146 40.7328 64.9362 40.4578L60.8875 37.5163C60.7183 37.3933 60.4891 37.3933 60.3199 37.5163L56.2712 40.4578C55.8928 40.7328 55.3836 40.3628 55.5281 39.9179L57.0746 35.1585C57.1392 34.9595 57.0684 34.7415 56.8991 34.6186L52.8505 31.677C52.472 31.4021 52.6665 30.8035 53.1343 30.8035H58.1387C58.3479 30.8035 58.5333 30.6688 58.598 30.4698L60.1444 25.7103Z" fill="#C1AE05"/>
        <path d="M77.0461 25.7103C77.1906 25.2654 77.82 25.2654 77.9646 25.7103L79.511 30.4698C79.5757 30.6688 79.7611 30.8035 79.9703 30.8035H84.9747C85.4425 30.8035 85.637 31.4021 85.2585 31.677L81.2099 34.6186C81.0406 34.7415 80.9698 34.9595 81.0345 35.1585L82.5809 39.9179C82.7255 40.3628 82.2163 40.7328 81.8378 40.4578L77.7892 37.5163C77.6199 37.3933 77.3907 37.3933 77.2215 37.5163L73.1728 40.4578C72.7944 40.7328 72.2852 40.3628 72.4297 39.9179L73.9762 35.1585C74.0408 34.9595 73.97 34.7415 73.8008 34.6186L69.7521 31.677C69.3736 31.4021 69.5681 30.8035 70.0359 30.8035H75.0403C75.2495 30.8035 75.435 30.6688 75.4996 30.4698L77.0461 25.7103Z" fill="#C1AE05"/>
        <path d="M3.03899 56.4532C2.72392 56.4532 2.43219 56.4153 2.16379 56.3395C1.90123 56.2578 1.67368 56.144 1.48113 55.9981C1.29442 55.8523 1.14564 55.6743 1.03478 55.4643C0.929752 55.2484 0.87724 55.0033 0.87724 54.7291C0.87724 54.3265 0.996851 53.991 1.23607 53.7226C1.48113 53.4484 1.80496 53.2529 2.20755 53.1362C1.86914 53.037 1.59782 52.8737 1.39361 52.6461C1.19523 52.4127 1.09604 52.1151 1.09604 51.7534C1.09604 51.5025 1.14272 51.2808 1.23607 51.0882C1.33526 50.8957 1.47238 50.7352 1.64742 50.6069C1.82246 50.4727 2.02667 50.3735 2.26006 50.3093C2.49928 50.2393 2.75893 50.2043 3.03899 50.2043C3.31322 50.2043 3.56703 50.2364 3.80042 50.3006C4.03964 50.3647 4.24677 50.461 4.42182 50.5894C4.59686 50.7177 4.73397 50.8782 4.83316 51.0707C4.93235 51.2633 4.98195 51.485 4.98195 51.7359C4.98195 52.0976 4.87984 52.3952 4.67562 52.6286C4.47141 52.862 4.2001 53.0312 3.86169 53.1362C4.26428 53.2412 4.58519 53.428 4.82441 53.6964C5.06363 53.9589 5.18324 54.2944 5.18324 54.7028C5.18324 54.9771 5.12781 55.2221 5.01695 55.438C4.91193 55.6539 4.76315 55.8377 4.5706 55.9894C4.37806 56.1411 4.1505 56.2578 3.88794 56.3395C3.62538 56.4153 3.3424 56.4532 3.03899 56.4532ZM3.03899 52.8387C3.38324 52.8387 3.66622 52.754 3.88794 52.5848C4.10966 52.4098 4.22052 52.1647 4.22052 51.8497C4.22052 51.5054 4.10966 51.2399 3.88794 51.0532C3.66622 50.8665 3.38324 50.7732 3.03899 50.7732C2.70058 50.7732 2.4176 50.8665 2.19005 51.0532C1.96833 51.2399 1.85747 51.5054 1.85747 51.8497C1.85747 52.1647 1.96833 52.4098 2.19005 52.5848C2.41176 52.754 2.69475 52.8387 3.03899 52.8387ZM3.03899 55.8844C3.23154 55.8844 3.4095 55.8581 3.57287 55.8056C3.74207 55.7472 3.88794 55.6626 4.01047 55.5518C4.133 55.4409 4.22927 55.3067 4.29929 55.1492C4.3693 54.9858 4.40431 54.802 4.40431 54.5978C4.40431 54.4111 4.3693 54.2448 4.29929 54.0989C4.22927 53.9472 4.133 53.8218 4.01047 53.7226C3.88794 53.6176 3.74207 53.5388 3.57287 53.4863C3.4095 53.4338 3.23154 53.4075 3.03899 53.4075C2.6364 53.4075 2.30382 53.5126 2.04126 53.7226C1.78453 53.9268 1.65617 54.2186 1.65617 54.5978C1.65617 55.0121 1.78453 55.3301 2.04126 55.5518C2.30382 55.7735 2.6364 55.8844 3.03899 55.8844ZM7.28401 56.3657V51.0182L6.08498 52.2435L5.81366 51.6921L7.249 50.2831H8.06294V56.3657H7.28401ZM13.3105 56.4532C13.0246 56.4532 12.7533 56.4036 12.4966 56.3045C12.2399 56.1994 12.0152 56.0506 11.8227 55.8581C11.6301 55.6597 11.4755 55.4205 11.3588 55.1404C11.248 54.8545 11.1925 54.5278 11.1925 54.1602C11.1925 53.7926 11.248 53.4688 11.3588 53.1887C11.4755 52.9028 11.6301 52.6636 11.8227 52.4711C12.0152 52.2785 12.2399 52.1327 12.4966 52.0335C12.7533 51.9284 13.0246 51.8759 13.3105 51.8759C13.5964 51.8759 13.8677 51.9284 14.1245 52.0335C14.387 52.1327 14.6146 52.2785 14.8071 52.4711C15.0055 52.6636 15.1631 52.9028 15.2797 53.1887C15.3964 53.4688 15.4548 53.7926 15.4548 54.1602C15.4548 54.5278 15.3964 54.8545 15.2797 55.1404C15.1631 55.4205 15.0055 55.6597 14.8071 55.8581C14.6146 56.0506 14.387 56.1994 14.1245 56.3045C13.8677 56.4036 13.5964 56.4532 13.3105 56.4532ZM13.3105 55.9019C13.4856 55.9019 13.6548 55.8727 13.8182 55.8143C13.9874 55.7502 14.1361 55.6481 14.2645 55.508C14.3929 55.368 14.495 55.1871 14.5708 54.9654C14.6525 54.7437 14.6934 54.4753 14.6934 54.1602C14.6934 53.8451 14.6525 53.5797 14.5708 53.3638C14.495 53.1421 14.3929 52.9612 14.2645 52.8211C14.1361 52.6811 13.9874 52.5819 13.8182 52.5236C13.6548 52.4594 13.4856 52.4273 13.3105 52.4273C13.1355 52.4273 12.9663 52.4594 12.8029 52.5236C12.6454 52.5819 12.5024 52.6811 12.3741 52.8211C12.2457 52.9612 12.1436 53.1421 12.0677 53.3638C11.9919 53.5797 11.954 53.8451 11.954 54.1602C11.954 54.4753 11.9919 54.7437 12.0677 54.9654C12.1436 55.1871 12.2457 55.368 12.3741 55.508C12.5024 55.6481 12.6454 55.7502 12.8029 55.8143C12.9663 55.8727 13.1355 55.9019 13.3105 55.9019ZM18.0427 52.4886V56.3657H17.29V52.4886H15.9509V51.9634H19.408V52.4886H18.0427ZM21.3954 56.4532C21.0978 56.4532 20.8236 56.4153 20.5727 56.3395C20.3218 56.2636 20.1292 56.1732 19.995 56.0682L20.1963 55.5605C20.348 55.6656 20.5318 55.7502 20.7477 55.8143C20.9636 55.8727 21.1882 55.9019 21.4216 55.9019C21.7075 55.9019 21.9467 55.8406 22.1393 55.7181C22.3318 55.5897 22.4281 55.3767 22.4281 55.0792C22.4281 54.6007 22.0839 54.3615 21.3954 54.3615H20.809V53.7839H21.4216C21.7075 53.7839 21.9205 53.7255 22.0605 53.6088C22.2064 53.4863 22.2793 53.32 22.2793 53.11C22.2793 52.9816 22.256 52.8737 22.2093 52.7861C22.1626 52.6928 22.0984 52.6199 22.0168 52.5673C21.9351 52.509 21.8388 52.4681 21.7279 52.4448C21.6229 52.4156 21.5062 52.401 21.3779 52.401C21.162 52.401 20.9665 52.439 20.7915 52.5148C20.6223 52.5907 20.456 52.6899 20.2926 52.8124L20.1001 52.2523C20.2401 52.1414 20.4239 52.051 20.6514 51.981C20.879 51.9109 21.1416 51.8759 21.4391 51.8759C21.9234 51.8759 22.2968 51.9751 22.5594 52.1735C22.8278 52.366 22.962 52.649 22.962 53.0224C22.962 53.3083 22.8803 53.5359 22.7169 53.7051C22.5536 53.8685 22.3493 53.9735 22.1043 54.0202C22.8044 54.1369 23.1545 54.5045 23.1545 55.1229C23.1545 55.3622 23.1049 55.5664 23.0057 55.7356C22.9124 55.8989 22.784 56.0361 22.6207 56.1469C22.4631 56.2519 22.2764 56.3278 22.0605 56.3745C21.8505 56.427 21.6288 56.4532 21.3954 56.4532ZM28.7944 56.3657H28.0505V51.9634H28.7944V56.3657ZM24.8997 53.8976V55.8406H25.5736C25.8946 55.8406 26.1542 55.7589 26.3526 55.5955C26.5568 55.4322 26.6589 55.1842 26.6589 54.8516C26.6589 54.5132 26.5685 54.2711 26.3876 54.1252C26.2067 53.9735 25.9529 53.8976 25.6262 53.8976H24.8997ZM24.1558 51.9634H24.8997V53.3725H25.6262C26.1921 53.3725 26.6297 53.4892 26.939 53.7226C27.254 53.9502 27.4116 54.3119 27.4116 54.8079C27.4116 55.0646 27.3649 55.2921 27.2715 55.4905C27.184 55.6831 27.0586 55.8464 26.8952 55.9806C26.7318 56.109 26.5364 56.2053 26.3088 56.2695C26.0871 56.3336 25.842 56.3657 25.5736 56.3657H24.1558V51.9634ZM30.78 52.4886V53.7926H31.5152C31.8478 53.7926 32.087 53.7314 32.2329 53.6088C32.3846 53.4805 32.4604 53.3142 32.4604 53.11C32.4604 52.8649 32.3816 52.7015 32.2241 52.6199C32.0724 52.5323 31.8565 52.4886 31.5764 52.4886H30.78ZM30.78 54.3177V55.8406H31.5677C31.8828 55.8406 32.1366 55.7852 32.3291 55.6743C32.5217 55.5576 32.6179 55.3534 32.6179 55.0617C32.6179 54.5657 32.2679 54.3177 31.5677 54.3177H30.78ZM30.0361 51.9634H31.5852C32.1162 51.9634 32.5158 52.051 32.7842 52.226C33.0585 52.3952 33.1956 52.6694 33.1956 53.0487C33.1956 53.5388 32.9213 53.8539 32.3729 53.9939C32.7171 54.0523 32.9709 54.1748 33.1343 54.3615C33.3035 54.5424 33.3881 54.7816 33.3881 55.0792C33.3881 55.3067 33.3414 55.5022 33.2481 55.6656C33.1606 55.8289 33.0351 55.9631 32.8718 56.0682C32.7142 56.1673 32.5246 56.2432 32.3029 56.2957C32.0812 56.3424 31.839 56.3657 31.5764 56.3657H30.0361V51.9634ZM36.7042 54.7028C36.4883 54.7028 36.3074 54.6328 36.1616 54.4928C36.0215 54.3469 35.9515 54.169 35.9515 53.9589C35.9515 53.7372 36.0215 53.5563 36.1616 53.4163C36.3074 53.2763 36.4883 53.2062 36.7042 53.2062C36.9259 53.2062 37.1068 53.2763 37.2468 53.4163C37.3868 53.5563 37.4569 53.7372 37.4569 53.9589C37.4569 54.169 37.3868 54.3469 37.2468 54.4928C37.1068 54.6328 36.9259 54.7028 36.7042 54.7028ZM41.352 56.3657V51.0182L40.153 52.2435L39.8817 51.6921L41.317 50.2831H42.1309V56.3657H41.352ZM45.9273 56.4532C45.583 56.4532 45.2592 56.3891 44.9558 56.2607C44.6582 56.1265 44.3986 55.9281 44.1769 55.6656C43.9551 55.403 43.7772 55.0763 43.643 54.6853C43.5146 54.2944 43.4504 53.8393 43.4504 53.32C43.4504 52.7949 43.5146 52.3398 43.643 51.9547C43.7772 51.5638 43.9551 51.2399 44.1769 50.9832C44.3986 50.7207 44.6582 50.5252 44.9558 50.3968C45.2592 50.2685 45.583 50.2043 45.9273 50.2043C46.2657 50.2043 46.5837 50.2685 46.8812 50.3968C47.1846 50.5252 47.4472 50.7177 47.6689 50.9745C47.8906 51.2312 48.0657 51.555 48.194 51.9459C48.3224 52.331 48.3866 52.7832 48.3866 53.3025C48.3866 53.8218 48.3224 54.2798 48.194 54.6766C48.0657 55.0675 47.8906 55.3942 47.6689 55.6568C47.4472 55.9194 47.1846 56.1177 46.8812 56.2519C46.5837 56.3861 46.2657 56.4532 45.9273 56.4532ZM45.9185 55.8844C46.1519 55.8844 46.3678 55.8406 46.5662 55.7531C46.7704 55.6597 46.9483 55.5139 47.1 55.3155C47.2517 55.1113 47.3713 54.8487 47.4589 54.5278C47.5464 54.2011 47.5901 53.8014 47.5901 53.3288C47.5901 52.8562 47.5464 52.4594 47.4589 52.1385C47.3713 51.8117 47.2517 51.5492 47.1 51.3508C46.9542 51.1466 46.7791 51.0007 46.5749 50.9132C46.3707 50.8198 46.1548 50.7732 45.9273 50.7732C45.6939 50.7732 45.4751 50.8198 45.2709 50.9132C45.0666 51.0007 44.8887 51.1466 44.737 51.3508C44.5853 51.5492 44.4657 51.8117 44.3782 52.1385C44.2906 52.4594 44.2469 52.8562 44.2469 53.3288C44.2469 53.8014 44.2906 54.2011 44.3782 54.5278C44.4657 54.8487 44.5853 55.1113 44.737 55.3155C44.8887 55.5139 45.0637 55.6597 45.2621 55.7531C45.4663 55.8406 45.6851 55.8844 45.9185 55.8844ZM51.7392 56.4532C51.3949 56.4532 51.0711 56.3891 50.7677 56.2607C50.4701 56.1265 50.2105 55.9281 49.9888 55.6656C49.767 55.403 49.5891 55.0763 49.4549 54.6853C49.3265 54.2944 49.2623 53.8393 49.2623 53.32C49.2623 52.7949 49.3265 52.3398 49.4549 51.9547C49.5891 51.5638 49.767 51.2399 49.9888 50.9832C50.2105 50.7207 50.4701 50.5252 50.7677 50.3968C51.0711 50.2685 51.3949 50.2043 51.7392 50.2043C52.0776 50.2043 52.3956 50.2685 52.6931 50.3968C52.9965 50.5252 53.2591 50.7177 53.4808 50.9745C53.7025 51.2312 53.8776 51.555 54.0059 51.9459C54.1343 52.331 54.1985 52.7832 54.1985 53.3025C54.1985 53.8218 54.1343 54.2798 54.0059 54.6766C53.8776 55.0675 53.7025 55.3942 53.4808 55.6568C53.2591 55.9194 52.9965 56.1177 52.6931 56.2519C52.3956 56.3861 52.0776 56.4532 51.7392 56.4532ZM51.7304 55.8844C51.9638 55.8844 52.1797 55.8406 52.3781 55.7531C52.5823 55.6597 52.7602 55.5139 52.9119 55.3155C53.0636 55.1113 53.1832 54.8487 53.2708 54.5278C53.3583 54.2011 53.402 53.8014 53.402 53.3288C53.402 52.8562 53.3583 52.4594 53.2708 52.1385C53.1832 51.8117 53.0636 51.5492 52.9119 51.3508C52.7661 51.1466 52.591 51.0007 52.3868 50.9132C52.1826 50.8198 51.9667 50.7732 51.7392 50.7732C51.5058 50.7732 51.287 50.8198 51.0828 50.9132C50.8785 51.0007 50.7006 51.1466 50.5489 51.3508C50.3972 51.5492 50.2776 51.8117 50.1901 52.1385C50.1025 52.4594 50.0588 52.8562 50.0588 53.3288C50.0588 53.8014 50.1025 54.2011 50.1901 54.5278C50.2776 54.8487 50.3972 55.1113 50.5489 55.3155C50.7006 55.5139 50.8756 55.6597 51.074 55.7531C51.2782 55.8406 51.497 55.8844 51.7304 55.8844ZM59.0023 56.4532C58.7164 56.4532 58.4451 56.4036 58.1884 56.3045C57.9317 56.1994 57.707 56.0506 57.5145 55.8581C57.3219 55.6597 57.1673 55.4205 57.0506 55.1404C56.9398 54.8545 56.8843 54.5278 56.8843 54.1602C56.8843 53.7926 56.9398 53.4688 57.0506 53.1887C57.1673 52.9028 57.3219 52.6636 57.5145 52.4711C57.707 52.2785 57.9317 52.1327 58.1884 52.0335C58.4451 51.9284 58.7164 51.8759 59.0023 51.8759C59.2882 51.8759 59.5595 51.9284 59.8163 52.0335C60.0788 52.1327 60.3064 52.2785 60.4989 52.4711C60.6973 52.6636 60.8548 52.9028 60.9715 53.1887C61.0882 53.4688 61.1466 53.7926 61.1466 54.1602C61.1466 54.5278 61.0882 54.8545 60.9715 55.1404C60.8548 55.4205 60.6973 55.6597 60.4989 55.8581C60.3064 56.0506 60.0788 56.1994 59.8163 56.3045C59.5595 56.4036 59.2882 56.4532 59.0023 56.4532ZM59.0023 55.9019C59.1774 55.9019 59.3466 55.8727 59.5099 55.8143C59.6792 55.7502 59.8279 55.6481 59.9563 55.508C60.0847 55.368 60.1868 55.1871 60.2626 54.9654C60.3443 54.7437 60.3852 54.4753 60.3852 54.1602C60.3852 53.8451 60.3443 53.5797 60.2626 53.3638C60.1868 53.1421 60.0847 52.9612 59.9563 52.8211C59.8279 52.6811 59.6792 52.5819 59.5099 52.5236C59.3466 52.4594 59.1774 52.4273 59.0023 52.4273C58.8273 52.4273 58.6581 52.4594 58.4947 52.5236C58.3372 52.5819 58.1942 52.6811 58.0659 52.8211C57.9375 52.9612 57.8354 53.1421 57.7595 53.3638C57.6837 53.5797 57.6458 53.8451 57.6458 54.1602C57.6458 54.4753 57.6837 54.7437 57.7595 54.9654C57.8354 55.1871 57.9375 55.368 58.0659 55.508C58.1942 55.6481 58.3372 55.7502 58.4947 55.8143C58.6581 55.8727 58.8273 55.9019 59.0023 55.9019ZM65.8844 57.7573L65.7356 56.3657H62.1297V51.9634H62.8737V55.8406H65.0442V51.9634H65.7881V55.8406H66.4533V57.7573H65.8844ZM68.923 52.4098C68.608 52.4098 68.3366 52.5207 68.1091 52.7424C67.8874 52.9641 67.7473 53.2996 67.689 53.7489H69.9208C69.9558 53.2938 69.877 52.9583 69.6845 52.7424C69.4978 52.5207 69.2439 52.4098 68.923 52.4098ZM70.5422 55.9894C70.3846 56.1236 70.1804 56.2344 69.9295 56.322C69.6786 56.4095 69.3927 56.4532 69.0718 56.4532C68.3717 56.4532 67.8349 56.2549 67.4614 55.8581C67.088 55.4555 66.9013 54.8895 66.9013 54.1602C66.9013 53.8043 66.9538 53.4863 67.0589 53.2062C67.1639 52.9203 67.3068 52.6782 67.4877 52.4798C67.6744 52.2814 67.8903 52.1327 68.1354 52.0335C68.3862 51.9284 68.6546 51.8759 68.9405 51.8759C69.2381 51.8759 69.5036 51.9284 69.737 52.0335C69.9762 52.1327 70.1717 52.2844 70.3234 52.4886C70.4809 52.6869 70.5859 52.9378 70.6384 53.2412C70.6968 53.5388 70.6968 53.8831 70.6384 54.274H67.6627C67.6977 55.3301 68.1908 55.8581 69.1418 55.8581C69.3927 55.8581 69.6174 55.8202 69.8157 55.7443C70.0141 55.6685 70.1979 55.5722 70.3671 55.4555L70.5422 55.9894ZM74.539 54.3528H72.4035V56.3657H71.6595V51.9634H72.4035V53.8276H74.539V51.9634H75.2829V56.3657H74.539V54.3528ZM78.3782 56.4532C78.0923 56.4532 77.821 56.4036 77.5642 56.3045C77.3075 56.1994 77.0829 56.0506 76.8903 55.8581C76.6978 55.6597 76.5432 55.4205 76.4265 55.1404C76.3156 54.8545 76.2602 54.5278 76.2602 54.1602C76.2602 53.7926 76.3156 53.4688 76.4265 53.1887C76.5432 52.9028 76.6978 52.6636 76.8903 52.4711C77.0829 52.2785 77.3075 52.1327 77.5642 52.0335C77.821 51.9284 78.0923 51.8759 78.3782 51.8759C78.6641 51.8759 78.9354 51.9284 79.1921 52.0335C79.4547 52.1327 79.6822 52.2785 79.8748 52.4711C80.0732 52.6636 80.2307 52.9028 80.3474 53.1887C80.4641 53.4688 80.5224 53.7926 80.5224 54.1602C80.5224 54.5278 80.4641 54.8545 80.3474 55.1404C80.2307 55.4205 80.0732 55.6597 79.8748 55.8581C79.6822 56.0506 79.4547 56.1994 79.1921 56.3045C78.9354 56.4036 78.6641 56.4532 78.3782 56.4532ZM78.3782 55.9019C78.5532 55.9019 78.7224 55.8727 78.8858 55.8143C79.055 55.7502 79.2038 55.6481 79.3322 55.508C79.4605 55.368 79.5626 55.1871 79.6385 54.9654C79.7202 54.7437 79.761 54.4753 79.761 54.1602C79.761 53.8451 79.7202 53.5797 79.6385 53.3638C79.5626 53.1421 79.4605 52.9612 79.3322 52.8211C79.2038 52.6811 79.055 52.5819 78.8858 52.5236C78.7224 52.4594 78.5532 52.4273 78.3782 52.4273C78.2031 52.4273 78.0339 52.4594 77.8706 52.5236C77.713 52.5819 77.5701 52.6811 77.4417 52.8211C77.3133 52.9612 77.2112 53.1421 77.1354 53.3638C77.0595 53.5797 77.0216 53.8451 77.0216 54.1602C77.0216 54.4753 77.0595 54.7437 77.1354 54.9654C77.2112 55.1871 77.3133 55.368 77.4417 55.508C77.5701 55.6481 77.713 55.7502 77.8706 55.8143C78.0339 55.8727 78.2031 55.9019 78.3782 55.9019ZM84.2012 56.3657L82.3633 54.0202L84.175 51.9634H84.9539L83.1597 53.9327L85.0764 56.3657H84.2012ZM82.2495 51.9634V56.3657H81.5056V51.9634H82.2495Z" fill="white"/>
        <path d="M6.38718 8.43736V4.75959H5.52996C4.89395 4.75959 4.40082 4.91168 4.05056 5.21585C3.70029 5.52003 3.52516 5.99012 3.52516 6.62613C3.52516 7.17917 3.68186 7.62161 3.99525 7.95344C4.31786 8.27605 4.80639 8.43736 5.46083 8.43736H6.38718ZM6.38718 9.80615H5.15665L3.08272 13H0.773748L3.26246 9.36371C2.65411 9.12406 2.18863 8.77379 1.86602 8.31292C1.54341 7.84283 1.3821 7.30361 1.3821 6.69526C1.3821 5.59838 1.7508 4.77342 2.4882 4.22037C3.22559 3.66732 4.2303 3.3908 5.50231 3.3908H8.47494V13H6.38718V9.80615ZM14.9246 10.055H12.2838V13H10.2652V5.99012H12.2838V8.79684H14.9246V5.99012H16.9294V13H14.9246V10.055ZM20.6005 11.2579C20.5268 11.4146 20.4484 11.5575 20.3655 11.6865H23.0477V7.27596H21.2365C21.1996 8.22536 21.1305 9.02267 21.0291 9.66789C20.9369 10.3131 20.7941 10.8431 20.6005 11.2579ZM24.3612 13H19.7156L19.4115 15.1984H17.9597V11.6865H18.4989C18.7847 11.4561 19.0013 11.1289 19.1488 10.7049C19.3147 10.2348 19.4345 9.61719 19.5082 8.85214C19.5912 8.08709 19.6557 7.13309 19.7018 5.99012H25.0664V11.6865H26.1172V15.1984H24.6654L24.3612 13ZM30.1593 7.04091C29.7813 7.04091 29.468 7.18839 29.2191 7.48335C28.9794 7.76909 28.8227 8.19309 28.749 8.75536H31.3483C31.3668 8.16544 31.2654 7.73222 31.0441 7.4557C30.8321 7.17917 30.5372 7.04091 30.1593 7.04091ZM33.1042 12.4331C32.8922 12.5898 32.5696 12.7465 32.1364 12.9032C31.7032 13.0599 31.1732 13.1383 30.5464 13.1383C29.9104 13.1383 29.3527 13.0553 28.8734 12.8894C28.3941 12.7143 27.9932 12.47 27.6706 12.1566C27.3572 11.834 27.1175 11.4469 26.9516 10.9952C26.7949 10.5435 26.7165 10.0412 26.7165 9.48815C26.7165 8.92588 26.7995 8.42353 26.9654 7.98109C27.1313 7.52944 27.3664 7.14691 27.6706 6.83352C27.9747 6.52012 28.3342 6.28047 28.749 6.11456C29.173 5.93942 29.6431 5.85186 30.1593 5.85186C30.6754 5.85186 31.1409 5.93482 31.5557 6.10073C31.9705 6.26664 32.3115 6.51552 32.5788 6.84734C32.8554 7.17917 33.0443 7.59396 33.1457 8.0917C33.2563 8.58944 33.2563 9.16554 33.1457 9.81998H28.7213C28.7859 10.4836 28.9886 10.9768 29.3297 11.2994C29.68 11.6128 30.1593 11.7695 30.7676 11.7695C31.1548 11.7695 31.5096 11.7142 31.8322 11.6036C32.1641 11.4929 32.459 11.3593 32.7171 11.2026L33.1042 12.4331ZM36.6012 9.36371V13H34.5826V5.99012H36.6012V9.33606L39.3388 5.99012H41.1362L38.6336 9.07336L41.3297 13H39.0484L36.6012 9.36371ZM45.328 13.1383C44.8026 13.1383 44.3141 13.0599 43.8624 12.9032C43.4108 12.7465 43.019 12.5161 42.6872 12.2119C42.3646 11.9077 42.1065 11.5344 41.9129 11.092C41.7286 10.6495 41.6364 10.138 41.6364 9.55728C41.6364 8.9858 41.7332 8.46962 41.9268 8.00874C42.1203 7.54787 42.3876 7.16074 42.7287 6.84734C43.0697 6.52473 43.4753 6.28047 43.9454 6.11456C44.4247 5.93942 44.9409 5.85186 45.4939 5.85186C45.9732 5.85186 46.365 5.88873 46.6691 5.96247C46.9733 6.02699 47.2176 6.10534 47.4019 6.19751L46.9595 7.69074C46.7383 7.53405 46.5217 7.40961 46.3097 7.31744C46.1069 7.22526 45.8304 7.17917 45.4801 7.17917C45.2404 7.17917 45.0146 7.22987 44.8026 7.33126C44.5906 7.42344 44.4016 7.56631 44.2357 7.75987C44.079 7.94422 43.95 8.17927 43.8486 8.46501C43.7564 8.75075 43.7103 9.08719 43.7103 9.47432C43.7103 10.2578 43.8809 10.8431 44.2219 11.2302C44.5722 11.6174 45.0515 11.8109 45.6598 11.8109C45.9271 11.8109 46.1852 11.7649 46.4341 11.6727C46.6922 11.5713 46.9134 11.4469 47.0978 11.2994L47.5125 12.4608C47.3374 12.6175 47.0655 12.7696 46.6968 12.917C46.3373 13.0645 45.881 13.1383 45.328 13.1383ZM54.0646 3.3908V13H51.9078V3.3908H54.0646ZM57.7148 13L54.1476 8.28527L57.9636 3.3908H59.8855L56.346 7.92579L60.162 13H57.7148ZM63.5098 11.9077C63.8416 11.9077 64.1043 11.8294 64.2979 11.6727C64.5006 11.5068 64.6573 11.304 64.7679 11.0643V9.79232H64.2149C63.5881 9.79232 63.1503 9.88911 62.9014 10.0827C62.6618 10.2762 62.5419 10.5574 62.5419 10.9261C62.5419 11.2579 62.6295 11.5068 62.8046 11.6727C62.9798 11.8294 63.2148 11.9077 63.5098 11.9077ZM65.0445 13C64.9984 12.8802 64.9569 12.7419 64.92 12.5852C64.8924 12.4193 64.8693 12.2442 64.8509 12.0598C64.7679 12.1889 64.6666 12.3179 64.5467 12.447C64.4269 12.576 64.2886 12.6912 64.1319 12.7926C63.9752 12.894 63.7909 12.977 63.5789 13.0415C63.3669 13.106 63.1272 13.1383 62.8599 13.1383C62.5281 13.1383 62.2193 13.0968 61.9336 13.0138C61.6478 12.9309 61.4036 12.8064 61.2008 12.6405C60.998 12.4654 60.8367 12.2488 60.7169 11.9907C60.6063 11.7326 60.551 11.433 60.551 11.092C60.551 10.4099 60.8459 9.86145 61.4358 9.44667C62.0258 9.02267 62.9383 8.81066 64.1734 8.81066H64.7679V8.42353C64.7679 8.00874 64.6666 7.69996 64.4638 7.49718C64.261 7.28517 63.8831 7.17917 63.33 7.17917C62.9245 7.17917 62.5742 7.2483 62.2792 7.38657C61.9843 7.51561 61.6939 7.68153 61.4082 7.88431L60.8275 6.48786C61.1224 6.31273 61.4911 6.16525 61.9336 6.04543C62.3852 5.91638 62.9475 5.85186 63.6204 5.85186C64.6343 5.85186 65.4132 6.05003 65.957 6.44638C66.51 6.83352 66.7866 7.46952 66.7866 8.3544V11.8801C66.7866 12.0368 66.7912 12.235 66.8004 12.4746C66.8188 12.705 66.8419 12.8802 66.8695 13H65.0445ZM72.0141 11.8248C72.4842 11.8248 72.8667 11.6404 73.1616 11.2717C73.4658 10.8938 73.6179 10.2993 73.6179 9.48815C73.6179 8.69545 73.4658 8.11014 73.1616 7.73222C72.8575 7.35431 72.4749 7.16535 72.0141 7.16535C71.544 7.16535 71.1476 7.35431 70.825 7.73222C70.5116 8.10092 70.3549 8.68623 70.3549 9.48815C70.3549 9.89372 70.3964 10.244 70.4794 10.5389C70.5623 10.8339 70.6775 11.0782 70.825 11.2717C70.9817 11.4561 71.1568 11.5943 71.3504 11.6865C71.5532 11.7787 71.7744 11.8248 72.0141 11.8248ZM72.5948 13.1383C72.0786 13.1383 71.6361 13.0323 71.2674 12.8203C70.908 12.599 70.6084 12.2995 70.3687 11.9216V15.5025H68.3501V5.99012H70.1614L70.3134 7.15152C70.5439 6.74595 70.8481 6.42795 71.226 6.19751C71.6131 5.96708 72.0786 5.85186 72.6224 5.85186C73.028 5.85186 73.4151 5.9256 73.7838 6.07308C74.1525 6.22056 74.4751 6.44639 74.7516 6.75056C75.0374 7.04552 75.2632 7.42344 75.4291 7.88431C75.595 8.33596 75.678 8.87058 75.678 9.48815C75.678 10.1057 75.595 10.6449 75.4291 11.1058C75.2632 11.5575 75.0374 11.9354 74.7516 12.2396C74.4659 12.5437 74.1387 12.7696 73.77 12.917C73.4013 13.0645 73.0095 13.1383 72.5948 13.1383ZM80.4114 7.38657V13H78.379V7.38657H76.4295V5.99012H82.3747V7.38657H80.4114ZM92.4981 13H90.4933V5.99012H92.4981V13ZM85.668 9.34989V11.8248H86.3869C86.7925 11.8248 87.1151 11.7326 87.3548 11.5482C87.6036 11.3547 87.7281 11.0367 87.7281 10.5942C87.7281 10.1518 87.6129 9.8338 87.3824 9.64024C87.1612 9.44667 86.8432 9.34989 86.4284 9.34989H85.668ZM83.6493 5.99012H85.668V8.17466H86.6635C87.6405 8.17466 88.4009 8.37283 88.9448 8.76919C89.4886 9.16554 89.7605 9.75545 89.7605 10.5389C89.7605 10.9445 89.6822 11.2994 89.5255 11.6036C89.3688 11.9077 89.1522 12.1658 88.8756 12.3778C88.5991 12.5806 88.2673 12.7373 87.8802 12.8479C87.5022 12.9493 87.0875 13 86.6358 13H83.6493V5.99012Z" fill="white"/>
        <path d="M93.8733 40.5608C92.8773 40.5608 92.0184 40.4525 91.2966 40.236C90.5893 40.005 90.0335 39.7235 89.6293 39.3915L90.2789 37.2262C90.4955 37.385 90.7192 37.5366 90.9502 37.6809C91.1811 37.8253 91.4338 37.9552 91.708 38.0707C91.9823 38.1717 92.2855 38.2511 92.6175 38.3089C92.9495 38.3666 93.332 38.3955 93.7651 38.3955C94.7322 38.3955 95.4685 38.1501 95.9737 37.6593C96.4789 37.154 96.7315 36.425 96.7315 35.4723C96.7315 34.5773 96.5078 33.9205 96.0603 33.5019C95.6272 33.0688 95.0354 32.8523 94.2848 32.8523C93.7218 32.8523 93.2887 32.9461 92.9856 33.1338C92.6969 33.307 92.4948 33.4514 92.3793 33.5668H90.2789V25.2954H99.265V27.5689H92.7474V31.4881C92.9784 31.3294 93.2959 31.1706 93.7001 31.0118C94.1043 30.853 94.624 30.7736 95.2591 30.7736C95.952 30.7736 96.5944 30.8746 97.1863 31.0767C97.7781 31.2644 98.2833 31.5531 98.702 31.9429C99.135 32.3182 99.467 32.7945 99.698 33.372C99.9434 33.9494 100.066 34.6206 100.066 35.3857C100.066 36.2085 99.9218 36.9447 99.6331 37.5943C99.3443 38.2295 98.9329 38.7708 98.3988 39.2183C97.8647 39.6513 97.2151 39.9834 96.4501 40.2143C95.685 40.4453 94.8261 40.5608 93.8733 40.5608ZM101.328 42.6178C101.632 42.2858 101.899 41.9105 102.13 41.4918C102.375 41.0732 102.548 40.669 102.649 40.2793C102.245 40.1638 101.949 39.9617 101.761 39.673C101.574 39.3699 101.48 39.0595 101.48 38.7419C101.48 38.2655 101.632 37.8686 101.935 37.551C102.252 37.219 102.664 37.053 103.169 37.053C103.674 37.053 104.086 37.219 104.403 37.551C104.735 37.883 104.901 38.3449 104.901 38.9368C104.901 39.2977 104.851 39.6658 104.75 40.0411C104.649 40.402 104.519 40.7412 104.36 41.0588C104.201 41.3908 104.021 41.6867 103.819 41.9466C103.631 42.2208 103.443 42.4446 103.256 42.6178H101.328ZM112.069 40.5608C111.16 40.5608 110.308 40.4092 109.514 40.1061C108.734 39.7885 108.049 39.3121 107.457 38.677C106.879 38.0274 106.418 37.219 106.071 36.2518C105.739 35.2846 105.573 34.137 105.573 32.809C105.573 31.4954 105.739 30.355 106.071 29.3878C106.418 28.4062 106.879 27.605 107.457 26.9843C108.049 26.3492 108.734 25.88 109.514 25.5769C110.308 25.2593 111.16 25.1005 112.069 25.1005C112.964 25.1005 113.801 25.2521 114.581 25.5552C115.375 25.8583 116.06 26.3275 116.638 26.9627C117.215 27.5834 117.67 28.3773 118.002 29.3445C118.334 30.3117 118.5 31.4521 118.5 32.7657C118.5 34.0793 118.334 35.2269 118.002 36.2085C117.67 37.1757 117.215 37.9841 116.638 38.6336C116.06 39.2832 115.375 39.7668 114.581 40.0844C113.801 40.402 112.964 40.5608 112.069 40.5608ZM112.047 38.4604C112.509 38.4604 112.928 38.3666 113.303 38.1789C113.693 37.9913 114.025 37.6809 114.299 37.2479C114.574 36.8004 114.783 36.2157 114.927 35.494C115.086 34.7722 115.165 33.8844 115.165 32.8306C115.165 31.7768 115.086 30.8891 114.927 30.1673C114.768 29.4455 114.552 28.8681 114.278 28.4351C114.003 27.9876 113.671 27.67 113.282 27.4823C112.906 27.2947 112.502 27.2008 112.069 27.2008C111.622 27.2008 111.203 27.2947 110.813 27.4823C110.423 27.67 110.084 27.9876 109.795 28.4351C109.521 28.8681 109.305 29.4455 109.146 30.1673C108.987 30.8891 108.908 31.7768 108.908 32.8306C108.908 33.8844 108.98 34.7722 109.124 35.494C109.283 36.2157 109.5 36.8004 109.774 37.2479C110.048 37.6809 110.373 37.9913 110.748 38.1789C111.138 38.3666 111.571 38.4604 112.047 38.4604Z" fill="#827F7F"/>
    </symbol>

    <symbol id="wallet" xmlns="http://www.w3.org/2000/svg" viewBox="0 0 70 70" fill="none">
        <g clip-path="url(#clip0_0_730)">
            <path d="M5.79688 70H60.6307C62.1168 69.9983 63.5416 69.4072 64.5925 68.3563C65.6433 67.3054 66.2344 65.8807 66.2361 64.3945V52.8478H66.9375C67.6987 52.8469 68.4285 52.5442 68.9667 52.0059C69.505 51.4677 69.8077 50.7379 69.8086 49.9767V36.6349C69.8077 35.8737 69.505 35.1439 68.9667 34.6057C68.4285 34.0674 67.6987 33.7646 66.9375 33.7638H66.237V22.2168C66.2353 20.7306 65.6441 19.3059 64.5933 18.255C63.5424 17.2041 62.1176 16.613 60.6315 16.6113H57.3666L53.6108 2.59654C53.3695 1.6997 52.7822 0.935221 51.9779 0.470838C51.1735 0.00645486 50.2178 -0.119907 49.3205 0.119475L7.51105 11.3222C6.61421 11.5638 5.84979 12.1512 5.38541 12.9557C4.92103 13.7601 4.7946 14.7158 5.03385 15.6133L5.30728 16.6348C3.91168 16.7588 2.6129 17.4002 1.66623 18.4331C0.71957 19.466 0.193492 20.8157 0.191406 22.2168V64.3945C0.193107 65.8807 0.784228 67.3054 1.83509 68.3563C2.88595 69.4072 4.31073 69.9983 5.79688 70ZM68.168 36.6349V49.9767C68.1676 50.3029 68.0378 50.6157 67.8072 50.8464C67.5765 51.0771 67.2637 51.2068 66.9375 51.2072H53.9671C51.8716 51.2072 49.8618 50.3747 48.38 48.8929C46.8982 47.4111 46.0657 45.4014 46.0657 43.3058C46.0657 41.2102 46.8982 39.2005 48.38 37.7187C49.8618 36.2369 51.8716 35.4044 53.9671 35.4044H66.9375C67.2637 35.4048 67.5765 35.5346 67.8071 35.7652C68.0378 35.9959 68.1676 36.3086 68.168 36.6349ZM55.6678 16.6113H30.4724L53.98 10.3128L55.6678 16.6113ZM6.80641 13.7758C6.92784 13.5635 7.09016 13.3774 7.28397 13.2283C7.47779 13.0791 7.69926 12.9699 7.93557 12.9069L49.745 1.70404C50.2222 1.57691 50.7303 1.64421 51.158 1.89117C51.5856 2.13814 51.8979 2.54461 52.0263 3.02147L53.5553 8.72811L24.1337 16.6113H7L6.61855 15.1881C6.55496 14.9519 6.53881 14.7055 6.57105 14.4631C6.6033 14.2207 6.68329 13.9871 6.80641 13.7758ZM1.83203 22.2168C1.83326 21.1656 2.25138 20.1579 2.99467 19.4146C3.73795 18.6713 4.74571 18.2532 5.79688 18.2519H60.6307C61.6818 18.2532 62.6896 18.6713 63.4329 19.4146C64.1762 20.1579 64.5943 21.1656 64.5955 22.2168V33.7635H53.9671C51.4364 33.7635 49.0094 34.7688 47.2199 36.5583C45.4304 38.3478 44.4251 40.7748 44.4251 43.3055C44.4251 45.8362 45.4304 48.2633 47.2199 50.0527C49.0094 51.8422 51.4364 52.8475 53.9671 52.8475H64.5959V64.3945C64.5947 65.4457 64.1766 66.4535 63.4333 67.1968C62.69 67.9401 61.6823 68.3582 60.6311 68.3594H5.79688C4.7457 68.3582 3.73792 67.9401 2.99463 67.1968C2.25133 66.4535 1.83323 65.4457 1.83203 64.3945V22.2168ZM62.6172 46.9035C63.3288 46.9035 64.0243 46.6925 64.616 46.2971C65.2076 45.9018 65.6687 45.3399 65.941 44.6825C66.2133 44.0251 66.2845 43.3017 66.1457 42.6038C66.0068 41.9059 65.6642 41.2649 65.161 40.7617C64.6578 40.2586 64.0168 39.916 63.3189 39.7771C62.621 39.6383 61.8976 39.7096 61.2402 39.9819C60.5828 40.2542 60.0209 40.7154 59.6256 41.307C59.2303 41.8986 59.0193 42.5942 59.0193 43.3058C59.0203 44.2597 59.3998 45.1742 60.0743 45.8487C60.7488 46.5232 61.6633 46.9025 62.6172 46.9035ZM62.6172 41.3487C63.0043 41.3487 63.3826 41.4635 63.7045 41.6786C64.0263 41.8936 64.2771 42.1993 64.4252 42.5569C64.5733 42.9145 64.6121 43.308 64.5366 43.6877C64.461 44.0673 64.2746 44.416 64.0009 44.6897C63.7272 44.9634 63.3785 45.1498 62.9988 45.2253C62.6192 45.3008 62.2257 45.2621 61.8681 45.1139C61.5104 44.9658 61.2048 44.7149 60.9897 44.3931C60.7747 44.0712 60.6599 43.6929 60.6599 43.3058C60.6605 42.7869 60.867 42.2894 61.2339 41.9225C61.6008 41.5556 62.0983 41.3492 62.6172 41.3487ZM11.1426 59.9424C11.1426 59.7248 11.229 59.5162 11.3828 59.3624C11.5367 59.2085 11.7453 59.1221 11.9629 59.1221H31.1035C31.3211 59.1221 31.5297 59.2085 31.6836 59.3624C31.8374 59.5162 31.9238 59.7248 31.9238 59.9424C31.9238 60.16 31.8374 60.3686 31.6836 60.5225C31.5297 60.6763 31.3211 60.7627 31.1035 60.7627H11.9629C11.8551 60.7628 11.7483 60.7417 11.6487 60.7006C11.5491 60.6594 11.4585 60.599 11.3823 60.5228C11.306 60.4467 11.2455 60.3562 11.2042 60.2566C11.1629 60.1571 11.1416 60.0503 11.1416 59.9425L11.1426 59.9424Z" fill="white"/>
        </g>
        <defs>
            <clipPath id="clip0_0_730">
            <rect width="70" height="70" fill="white"/>
            </clipPath>
        </defs>
    </symbol>

    <symbol id="adv-1" xmlns="http://www.w3.org/2000/svg" viewBox="0 0 70 70" fill="none">
        <path d="M64.8318 36.7349H4.75879C3.81635 36.7359 2.91281 37.1108 2.2464 37.7772C1.58 38.4436 1.20515 39.3471 1.2041 40.2896V64.0809C1.20515 65.0234 1.58 65.9269 2.2464 66.5933C2.91281 67.2597 3.81635 67.6346 4.75879 67.6356H64.8318C65.7742 67.6346 66.6778 67.2597 67.3442 66.5933C68.0106 65.9269 68.3854 65.0234 68.3865 64.0809V40.2896C68.3854 39.3471 68.0106 38.4436 67.3442 37.7772C66.6778 37.1108 65.7742 36.7359 64.8318 36.7349ZM45.1655 52.7795H24.7762V45.8068H45.1655V52.7795ZM24.7762 54.4201H45.1655V65.995H24.7762V54.4201ZM45.1655 44.1662H24.7762V38.3755H45.1655V44.1662ZM2.84473 64.0809V40.2896C2.84531 39.7821 3.04715 39.2956 3.40598 38.9367C3.76481 38.5779 4.25133 38.3761 4.75879 38.3755H23.1356V65.995H4.75879C4.25131 65.9945 3.76478 65.7926 3.40594 65.4338C3.0471 65.0749 2.84527 64.5884 2.84473 64.0809ZM66.7456 64.0809C66.745 64.5884 66.5432 65.0749 66.1844 65.4338C65.8255 65.7926 65.339 65.9945 64.8315 65.995H46.8061V38.3755H64.8318C65.3392 38.3761 65.8258 38.5779 66.1846 38.9367C66.5434 39.2956 66.7453 39.7821 66.7458 40.2896L66.7456 64.0809Z" fill="#002B45"/>
        <path d="M45.9856 19.8046H67.1176C67.4076 19.8043 67.6857 19.689 67.8907 19.4839C68.0958 19.2788 68.2111 19.0008 68.2114 18.7108V3.27637C68.2111 2.98639 68.0957 2.70838 67.8907 2.50333C67.6856 2.29828 67.4076 2.18294 67.1176 2.18262H2.12305C1.83307 2.18294 1.55506 2.29828 1.35001 2.50333C1.14496 2.70838 1.02962 2.98639 1.0293 3.27637V18.7108C1.02962 19.0008 1.14496 19.2788 1.35001 19.4839C1.55506 19.6889 1.83307 19.8042 2.12305 19.8046H23.2554C23.473 19.8046 23.6816 19.7181 23.8354 19.5643C23.9893 19.4105 24.0757 19.2018 24.0757 18.9843V14.5483H29.2135V18.8283L26.6825 25.2654C26.6174 25.4312 26.5937 25.6105 26.6136 25.7875C26.6335 25.9646 26.6963 26.1341 26.7966 26.2813C26.897 26.4286 27.0317 26.5491 27.1892 26.6323C27.3468 26.7156 27.5222 26.7592 27.7004 26.7592H41.6167C41.7949 26.7592 41.9704 26.7157 42.128 26.6324C42.2855 26.5491 42.4203 26.4286 42.5207 26.2813C42.621 26.1341 42.6839 25.9645 42.7037 25.7874C42.7236 25.6104 42.6999 25.4311 42.6347 25.2653L40.1039 18.8279V14.5483H45.1651V18.9843C45.1651 19.092 45.1863 19.1987 45.2276 19.2982C45.2688 19.3977 45.3292 19.4882 45.4054 19.5644C45.4816 19.6405 45.5721 19.701 45.6716 19.7422C45.7711 19.7834 45.8778 19.8046 45.9856 19.8046ZM66.5708 18.1639H46.8059V3.82324H66.5708V18.1639ZM2.66992 3.82324H22.4351V18.1639H2.66992V3.82324ZM28.5031 25.119L30.5925 19.804H38.7248L40.8143 25.119H28.5031ZM38.4634 18.1634H30.8538V14.5483H38.4634V18.1634ZM24.0757 12.9077V3.82324H45.1653V12.9077H24.0757Z" fill="#002B45"/>
        <path d="M19.3007 40.0161H7.81152C7.59396 40.0161 7.38531 40.1025 7.23147 40.2564C7.07764 40.4102 6.99121 40.6189 6.99121 40.8364C6.99121 41.054 7.07764 41.2626 7.23147 41.4165C7.38531 41.5703 7.59396 41.6567 7.81152 41.6567H19.3007C19.5182 41.6567 19.7269 41.5703 19.8807 41.4165C20.0346 41.2626 20.121 41.054 20.121 40.8364C20.121 40.6189 20.0346 40.4102 19.8807 40.2564C19.7269 40.1025 19.5182 40.0161 19.3007 40.0161Z" fill="#002B45"/>
        <path d="M62.8704 40.0161H51.3811C51.1635 40.0161 50.9549 40.1025 50.8011 40.2564C50.6472 40.4102 50.5608 40.6189 50.5608 40.8364C50.5608 41.054 50.6472 41.2626 50.8011 41.4165C50.9549 41.5703 51.1635 41.6567 51.3811 41.6567H62.8704C63.088 41.6567 63.2966 41.5703 63.4504 41.4165C63.6043 41.2626 63.6907 41.054 63.6907 40.8364C63.6907 40.6189 63.6043 40.4102 63.4504 40.2564C63.2966 40.1025 63.088 40.0161 62.8704 40.0161Z" fill="#002B45"/>
        <path d="M16.3425 15.126H8.92773C8.71017 15.126 8.50152 15.2124 8.34769 15.3662C8.19385 15.5201 8.10742 15.7287 8.10742 15.9463C8.10742 16.1638 8.19385 16.3725 8.34769 16.5263C8.50152 16.6802 8.71017 16.7666 8.92773 16.7666H16.3423C16.5598 16.7666 16.7685 16.6802 16.9223 16.5263C17.0762 16.3725 17.1626 16.1638 17.1626 15.9463C17.1626 15.7287 17.0762 15.5201 16.9223 15.3662C16.7685 15.2124 16.5598 15.126 16.3423 15.126H16.3425Z" fill="#002B45"/>
        <path d="M53.7775 16.7666H61.1921C61.4097 16.7666 61.6183 16.6802 61.7722 16.5263C61.926 16.3725 62.0124 16.1638 62.0124 15.9463C62.0124 15.7287 61.926 15.5201 61.7722 15.3662C61.6183 15.2124 61.4097 15.126 61.1921 15.126H53.7775C53.5599 15.126 53.3513 15.2124 53.1974 15.3662C53.0436 15.5201 52.9572 15.7287 52.9572 15.9463C52.9572 16.1638 53.0436 16.3725 53.1974 16.5263C53.3513 16.6802 53.5599 16.7666 53.7775 16.7666Z" fill="#002B45"/>
    </symbol>

    <symbol id="adv-2" xmlns="http://www.w3.org/2000/svg" viewBox="0 0 70 70" fill="none">
        <path d="M61.7349 6.08725H52.1459V3.48312C52.1459 1.56248 50.4957 0 48.4673 0C46.4404 0 44.7917 1.56248 44.7917 3.48312V6.08725H29.0943V3.48312C29.0943 1.56248 27.4442 0 25.4158 0C23.3888 0 21.7401 1.56248 21.7401 3.48312V6.08725H12.1526C9.31136 6.08725 7 8.27582 7 10.9661V57.4769C7 60.1672 9.31136 62.3557 12.1526 62.3557H21.5149C22.1458 63.2183 22.8648 64.0385 23.6761 64.8068C27.3345 68.2694 32.1405 70 36.9437 70C41.7483 70 46.553 68.268 50.2099 64.8068C51.014 64.0453 51.7358 63.2251 52.3711 62.3557H61.7363C64.5775 62.3557 66.8889 60.1672 66.8889 57.4769V10.9661C66.8874 8.27582 64.5761 6.08725 61.7349 6.08725ZM47.1016 3.48312C47.1016 2.76681 47.7151 2.18447 48.4688 2.18447C49.2253 2.18447 49.8403 2.76681 49.8403 3.48312V10.88C49.8403 11.5935 49.2253 12.1745 48.4688 12.1745C47.7151 12.1745 47.1016 11.5935 47.1016 10.88V3.48312ZM24.0486 3.48312C24.0486 2.76681 24.6622 2.18447 25.4158 2.18447C26.1723 2.18447 26.7873 2.76681 26.7873 3.48312V10.88C26.7873 11.5935 26.1723 12.1745 25.4158 12.1745C24.6622 12.1745 24.0486 11.5935 24.0486 10.88V3.48312ZM12.1526 8.27309H21.7416V10.88C21.7416 12.7992 23.3903 14.3603 25.4172 14.3603C27.4456 14.3603 29.0958 12.7992 29.0958 10.88V8.27309H44.7945V10.88C44.7945 12.7992 46.4432 14.3603 48.4702 14.3603C50.4986 14.3603 52.1487 12.7992 52.1487 10.88V8.27309H61.7378C63.3056 8.27309 64.5819 9.48152 64.5819 10.9661V18.2631H9.30847V10.9661C9.30847 9.48015 10.5833 8.27309 12.1526 8.27309ZM48.577 63.2607C45.3691 66.2982 41.1564 67.8155 36.9437 67.8155C32.731 67.8155 28.5154 66.2968 25.3075 63.2607C24.4861 62.4815 23.77 61.6408 23.1579 60.7522C23.129 60.7003 23.0958 60.6524 23.0582 60.606C19.0101 54.5802 19.7594 46.478 25.3061 41.226C28.4014 38.2952 32.5332 36.6807 36.9423 36.6807C41.3513 36.6807 45.4817 38.2952 48.5756 41.226C51.6709 44.1555 53.3759 48.0665 53.3759 52.2413C53.3759 55.2637 52.4822 58.1495 50.8133 60.6237C50.7917 60.6525 50.77 60.6825 50.7512 60.714C50.1305 61.6244 49.4043 62.4774 48.577 63.2607ZM61.7349 60.1699H53.7339C55.0087 57.7421 55.6829 55.0436 55.6829 52.2427C55.6829 47.4841 53.7382 43.0236 50.207 39.6827C46.6771 36.339 41.9663 34.4976 36.9408 34.4976C31.9153 34.4976 27.2031 36.339 23.6718 39.6827C17.8292 45.2149 16.654 53.5208 20.1477 60.1713H12.1497C10.5818 60.1713 9.30558 58.9628 9.30558 57.4783V20.4476H64.5775V57.4769C64.579 58.9615 63.3042 60.1699 61.7349 60.1699ZM49.0823 52.2413C49.0823 52.8455 48.5655 53.3335 47.9288 53.3335H36.9437C36.3056 53.3335 35.7902 52.8441 35.7902 52.2413V41.8412C35.7902 41.2369 36.3071 40.7489 36.9437 40.7489C37.5804 40.7489 38.0972 41.2383 38.0972 41.8412V51.1491H47.9274C48.5655 51.1491 49.0823 51.6385 49.0823 52.2413Z" fill="#002B45"/>
    </symbol>

    <symbol id="adv-3" xmlns="http://www.w3.org/2000/svg" viewBox="0 0 70 61" fill="none">
        <g clip-path="url(#clip0_0_738)">
            <path d="M68.4508 60.9936H6.90217C6.47283 60.9936 6.12439 60.6451 6.12439 60.2158C6.12439 59.7865 6.47283 59.438 6.90217 59.438H67.6731V8.54335H12.2533C11.8239 8.54335 11.4755 8.1949 11.4755 7.76557C11.4755 7.33624 11.8239 6.98779 12.2533 6.98779H68.4508C68.8802 6.98779 69.2286 7.33624 69.2286 7.76557V60.2158C69.2286 60.6451 68.8802 60.9936 68.4508 60.9936Z" fill="#002B45"/>
            <path d="M12.2533 55.6423C11.824 55.6423 11.4755 55.2939 11.4755 54.8645V5.80232C11.4755 3.28076 9.42373 1.22743 6.90062 1.22743C4.37751 1.22743 2.32728 3.28076 2.32728 5.80232V54.8645C2.32728 55.2939 1.97884 55.6423 1.54951 55.6423C1.12017 55.6423 0.771729 55.2939 0.771729 54.8645V5.80232C0.771729 2.4221 3.52195 -0.328125 6.90217 -0.328125C10.2824 -0.328125 13.0326 2.4221 13.0326 5.80232V54.8645C13.0311 55.2939 12.6826 55.6423 12.2533 55.6423Z" fill="#002B45"/>
            <path d="M6.90217 60.9933C3.52195 60.9933 0.771729 58.2431 0.771729 54.8629C0.771729 51.4826 3.52195 48.7324 6.90217 48.7324C10.2824 48.7324 13.0326 51.4826 13.0326 54.8629C13.0326 55.2922 12.6842 55.6406 12.2548 55.6406C11.8255 55.6406 11.4771 55.2922 11.4771 54.8629C11.4771 52.3413 9.42529 50.288 6.90217 50.288C4.37906 50.288 2.32728 52.3398 2.32728 54.8629C2.32728 57.386 4.37906 59.4378 6.90217 59.4378C7.33151 59.4378 7.67995 59.7862 7.67995 60.2155C7.67995 60.6449 7.33151 60.9933 6.90217 60.9933Z" fill="#002B45"/>
            <path d="M63.6019 48.5318H17.1032C16.6739 48.5318 16.3254 48.1833 16.3254 47.754V38.0053C16.3254 37.576 16.6739 37.2275 17.1032 37.2275H63.6019C64.0312 37.2275 64.3797 37.576 64.3797 38.0053V47.754C64.3797 48.1849 64.0312 48.5318 63.6019 48.5318ZM17.881 46.9762H62.8241V38.7831H17.881V46.9762Z" fill="#002B45"/>
            <path d="M58.5632 48.5317C58.1338 48.5317 57.7854 48.1833 57.7854 47.7539V43.0468C57.7854 42.6175 58.1338 42.269 58.5632 42.269C58.9925 42.269 59.341 42.6175 59.341 43.0468V47.7539C59.341 48.1848 58.9925 48.5317 58.5632 48.5317Z" fill="#002B45"/>
            <path d="M52.4921 48.5317C52.0628 48.5317 51.7144 48.1832 51.7144 47.7539V45.4003C51.7144 44.971 52.0628 44.6226 52.4921 44.6226C52.9215 44.6226 53.2699 44.971 53.2699 45.4003V47.7539C53.2699 48.1848 52.923 48.5317 52.4921 48.5317Z" fill="#002B45"/>
            <path d="M46.4226 48.5317C45.9932 48.5317 45.6448 48.1833 45.6448 47.7539V43.0468C45.6448 42.6175 45.9932 42.269 46.4226 42.269C46.8519 42.269 47.2003 42.6175 47.2003 43.0468V47.7539C47.2003 48.1848 46.8519 48.5317 46.4226 48.5317Z" fill="#002B45"/>
            <path d="M40.3522 48.5317C39.9229 48.5317 39.5745 48.1832 39.5745 47.7539V45.4003C39.5745 44.971 39.9229 44.6226 40.3522 44.6226C40.7816 44.6226 41.13 44.971 41.13 45.4003V47.7539C41.13 48.1848 40.7816 48.5317 40.3522 48.5317Z" fill="#002B45"/>
            <path d="M34.281 48.5317C33.8516 48.5317 33.5032 48.1833 33.5032 47.7539V43.0468C33.5032 42.6175 33.8516 42.269 34.281 42.269C34.7103 42.269 35.0587 42.6175 35.0587 43.0468V47.7539C35.0587 48.1848 34.7103 48.5317 34.281 48.5317Z" fill="#002B45"/>
            <path d="M28.2114 48.5317C27.7821 48.5317 27.4337 48.1832 27.4337 47.7539V45.4003C27.4337 44.971 27.7821 44.6226 28.2114 44.6226C28.6408 44.6226 28.9892 44.971 28.9892 45.4003V47.7539C28.9892 48.1848 28.6408 48.5317 28.2114 48.5317Z" fill="#002B45"/>
            <path d="M22.1394 48.5317C21.71 48.5317 21.3616 48.1833 21.3616 47.7539V43.0468C21.3616 42.6175 21.71 42.269 22.1394 42.269C22.5687 42.269 22.9171 42.6175 22.9171 43.0468V47.7539C22.9171 48.1848 22.5702 48.5317 22.1394 48.5317Z" fill="#002B45"/>
            <path d="M57.368 31.4472C57.354 31.4472 57.3385 31.4472 57.3245 31.4472C56.5094 31.4363 55.7471 31.1081 55.1778 30.5232C54.6427 29.9726 54.3425 29.2508 54.316 28.5072H26.3891C26.3611 29.2523 26.0625 29.9726 25.5274 30.5232C24.9596 31.1081 24.1974 31.4363 23.3822 31.4472C22.5656 31.4581 21.7956 31.1517 21.2107 30.5839L18.3174 27.7808C17.6407 27.2083 17.2518 26.3637 17.2502 25.4599C17.2487 24.5515 17.636 23.7021 18.3142 23.1219L21.2122 20.3141C22.4178 19.1412 24.3545 19.1677 25.5274 20.3748C26.0625 20.9255 26.3627 21.6472 26.3891 22.3908H54.316C54.344 21.6457 54.6427 20.9255 55.1778 20.3748C56.3522 19.1677 58.2874 19.1412 59.4945 20.3157L62.3909 23.1219C63.0334 23.6679 63.3989 24.3741 63.4502 25.1643C63.5063 26.0463 63.1485 26.9735 62.4702 27.7061C62.4485 27.7295 62.4267 27.7512 62.4018 27.7715L62.3894 27.7823L59.4929 30.5886C58.922 31.1408 58.1676 31.4472 57.368 31.4472ZM25.5149 26.9517H55.1918C55.4376 26.9517 55.6709 27.0683 55.8171 27.2659C55.9634 27.4635 56.0085 27.7201 55.9369 27.955C55.7783 28.4777 55.9151 29.0455 56.2947 29.4375C56.5731 29.7237 56.948 29.8855 57.3478 29.8901C57.7554 29.8963 58.1256 29.7455 58.4118 29.467L61.3285 26.6406C61.3394 26.6312 61.3503 26.6203 61.3596 26.611C61.7314 26.1957 61.9274 25.7057 61.8994 25.2577C61.876 24.889 61.6987 24.5639 61.372 24.2917C61.358 24.2792 61.3425 24.2668 61.33 24.2543L58.4134 21.4279C57.8207 20.8508 56.8703 20.8648 56.2947 21.4559C55.9136 21.8479 55.7767 22.4157 55.9369 22.9383C56.0085 23.1748 55.9649 23.4299 55.8171 23.6275C55.6709 23.825 55.4391 23.9417 55.1918 23.9417H25.5149C25.2691 23.9417 25.0374 23.825 24.8896 23.6275C24.7418 23.4299 24.6983 23.1732 24.7714 22.9383C24.93 22.4157 24.7931 21.8479 24.4136 21.4559C23.838 20.8648 22.8891 20.8508 22.2965 21.4263L19.3782 24.2528C19.3642 24.2668 19.3502 24.2792 19.3362 24.2901C18.9987 24.5732 18.8058 24.9963 18.8058 25.4506C18.8074 25.9032 19.0002 26.3217 19.3347 26.5986C19.3502 26.611 19.3658 26.625 19.3798 26.639L22.2949 29.4639C22.8876 30.041 23.838 30.027 24.4136 29.4359C24.7947 29.0439 24.9316 28.4761 24.7714 27.9535C24.6998 27.717 24.7434 27.4619 24.8896 27.2643C25.0358 27.0668 25.2676 26.9517 25.5149 26.9517Z" fill="#002B45"/>
        </g>
        <defs>
            <clipPath id="clip0_0_738">
            <rect width="70" height="60.6667" fill="white"/>
            </clipPath>
        </defs>
    </symbol>

    <symbol id="drop" xmlns="http://www.w3.org/2000/svg" viewBox="0 0 21 9" >
        <path d="M10.5 0.500002L20.4593 8.75L0.540706 8.75L10.5 0.500002Z" />
    </symbol>

    <symbol id="prev" xmlns="http://www.w3.org/2000/svg" viewBox="0 0 20 7" >
        <path d="M4.68829 0.557057L2.34784 3.10586L19.9255 3.10586L19.9255 3.89414L2.34784 3.89414L4.68829 6.44294L4.17677 7L0.962872 3.5L4.17677 2.27616e-07L4.68829 0.557057Z" />
    </symbol>

    <symbol id="filters" viewBox="0 0 16 16" xmlns="http://www.w3.org/2000/svg">
        <path d="M0 3.7L11 3.7 11 2.3 0 2.3 0 3.7zM13 0C12.4477153 0 12 .44771525 12 1L12 5C12 5.55228475 12.4477153 6 13 6 13.5522847 6 14 5.55228475 14 5L14 1C14 .44771525 13.5522847 0 13 0zM7 8.3L7 7C7 6.44771525 6.55228475 6 6 6 5.44771525 6 5 6.44771525 5 7L5 11C5 11.5522847 5.44771525 12 6 12 6.55228475 12 7 11.5522847 7 11L7 9.7 14 9.7 14 8.3 7 8.3zM0 9.7L4 9.7 4 8.3 0 8.3 0 9.7z" transform="translate(1 2)"/>
    </symbol>
</svg>
